<svg width="50" height="66" viewBox="0 0 50 66" fill="none" xmlns="http://www.w3.org/2000/svg">
<path d="M49.0885 13.5352L36.3411 0.902344C35.7552 0.322266 34.9609 0 34.1276 0H33.3333V16.5H50V15.7137C50 14.9016 49.6745 14.1152 49.0885 13.5352ZM29.1667 17.5312V0H3.125C1.39323 0 0 1.3793 0 3.09375V62.9062C0 64.6207 1.39323 66 3.125 66H46.875C48.6068 66 50 64.6207 50 62.9062V20.625H32.2917C30.5729 20.625 29.1667 19.2328 29.1667 17.5312ZM37.5 38.1562V44.3438C37.5 44.9109 37.0312 45.375 36.4583 45.375H29.1667V52.5938C29.1667 53.1609 28.6979 53.625 28.125 53.625H21.875C21.3021 53.625 20.8333 53.1609 20.8333 52.5938V45.375H13.5417C12.9687 45.375 12.5 44.9109 12.5 44.3438V38.1562C12.5 37.5891 12.9687 37.125 13.5417 37.125H20.8333V29.9062C20.8333 29.3391 21.3021 28.875 21.875 28.875H28.125C28.6979 28.875 29.1667 29.3391 29.1667 29.9062V37.125H36.4583C37.0312 37.125 37.5 37.5891 37.5 38.1562Z" fill="#A3AFB7"/>
</svg>
