<svg width="9" height="9" viewBox="0 0 9 9" fill="none" xmlns="http://www.w3.org/2000/svg">
<path d="M8.75214 2.49665L7.94175 3.30704C7.85913 3.38966 7.72553 3.38966 7.64291 3.30704L5.69164 1.35578C5.60902 1.27315 5.60902 1.13955 5.69164 1.05693L6.50203 0.246545C6.83076 -0.0821815 7.36516 -0.0821815 7.69564 0.246545L8.75214 1.30304C9.08262 1.63177 9.08262 2.16616 8.75214 2.49665ZM4.99552 1.75306L0.379289 6.36929L0.00661504 8.50513C-0.0443639 8.79342 0.207015 9.04305 0.49531 8.99382L2.63115 8.61939L7.24738 4.00316C7.33 3.92054 7.33 3.78694 7.24738 3.70432L5.29612 1.75306C5.21174 1.67044 5.07814 1.67044 4.99552 1.75306ZM2.18113 5.97376C2.08445 5.87708 2.08445 5.72238 2.18113 5.6257L4.88829 2.91854C4.98497 2.82186 5.13967 2.82186 5.23635 2.91854C5.33303 3.01523 5.33303 3.16992 5.23635 3.26661L2.52919 5.97376C2.43251 6.07045 2.27781 6.07045 2.18113 5.97376ZM1.54653 7.45215H2.39032V8.09027L1.25648 8.28891L0.709773 7.7422L0.908415 6.60836H1.54653V7.45215Z" fill="#37474F"/>
</svg>
