<svg width="91" height="46" viewBox="0 0 91 46" fill="none" xmlns="http://www.w3.org/2000/svg">
<path d="M32.1033 7.82L22.7818 29.44H32.0017V38.1539H9.34873L18.6262 16.5339H8.82093V7.82H32.1033Z" fill="#A3AFB7"/>
<path d="M42.723 17.9707V38.1601H34.4996V17.9707H42.723ZM38.628 7.75407C39.1638 7.74772 39.6955 7.84956 40.1919 8.05362C40.6882 8.25767 41.1393 8.55983 41.5187 8.9424C41.9043 9.29928 42.2115 9.73396 42.4205 10.2183C42.6295 10.7027 42.7356 11.2261 42.7321 11.7545C42.7321 12.9107 42.3474 13.8588 41.5779 14.5989C40.8084 15.339 39.8231 15.7095 38.6219 15.7105C37.4197 15.7105 36.4339 15.34 35.6644 14.5989C34.895 13.8578 34.5102 12.9096 34.5102 11.7545C34.5067 11.2261 34.6128 10.7027 34.8218 10.2183C35.0308 9.73396 35.338 9.29928 35.7236 8.9424C36.1053 8.55748 36.5597 8.25397 37.0596 8.04984C37.5596 7.84572 38.0949 7.74514 38.634 7.75407H38.628Z" fill="#A3AFB7"/>
<path d="M57.33 15.7765V24.6698C56.7587 24.3447 56.2385 24.1822 55.7693 24.1822C54.2739 24.1822 53.5262 25.3378 53.5262 27.6491V38.1631H45.3059V26.0498C45.3059 22.8492 46.1704 20.2967 47.8994 18.3923C49.6284 16.4879 51.9372 15.5362 54.826 15.5373C55.6654 15.5539 56.5024 15.6339 57.33 15.7765Z" fill="#A3AFB7"/>
<path d="M72.6817 29.4661V38.0681C72.0701 38.1813 71.45 38.2408 70.8283 38.2459C67.5311 38.2459 64.7829 37.1496 62.5837 34.9569C60.3846 32.7643 59.2875 30.0155 59.2926 26.7107C59.2926 23.4958 60.4048 20.769 62.6292 18.5303C64.8537 16.2917 67.5523 15.1749 70.7252 15.18C74.2722 15.18 77.0679 16.2288 79.1124 18.3264C81.1568 20.424 82.1791 23.2862 82.1791 26.9131V38.1064H73.9572V27.5111C73.9572 26.3396 73.6751 25.4058 73.1109 24.7097C72.5467 24.0135 71.7884 23.6655 70.8359 23.6655C69.9947 23.677 69.1912 24.0199 68.5964 24.6213C68.0015 25.2227 67.6623 26.0351 67.6509 26.8855C67.6509 27.8055 67.937 28.5609 68.5093 29.1517C68.791 29.4448 69.1301 29.6752 69.5048 29.8283C69.8796 29.9815 70.2818 30.0539 70.6858 30.0411C71.3915 30.0445 72.0837 29.8451 72.6817 29.4661Z" fill="#A3AFB7"/>
</svg>
