<svg width="17" height="22" viewBox="0 0 17 22" fill="none" xmlns="http://www.w3.org/2000/svg">
<path d="M9.625 5.84375V0H1.03125C0.459766 0 0 0.459766 0 1.03125V20.9688C0 21.5402 0.459766 22 1.03125 22H15.4688C16.0402 22 16.5 21.5402 16.5 20.9688V6.875H10.6562C10.0891 6.875 9.625 6.41094 9.625 5.84375ZM12.375 15.9844C12.375 16.268 12.143 16.5 11.8594 16.5H4.64062C4.35703 16.5 4.125 16.268 4.125 15.9844V15.6406C4.125 15.357 4.35703 15.125 4.64062 15.125H11.8594C12.143 15.125 12.375 15.357 12.375 15.6406V15.9844ZM12.375 13.2344C12.375 13.518 12.143 13.75 11.8594 13.75H4.64062C4.35703 13.75 4.125 13.518 4.125 13.2344V12.8906C4.125 12.607 4.35703 12.375 4.64062 12.375H11.8594C12.143 12.375 12.375 12.607 12.375 12.8906V13.2344ZM12.375 10.1406V10.4844C12.375 10.768 12.143 11 11.8594 11H4.64062C4.35703 11 4.125 10.768 4.125 10.4844V10.1406C4.125 9.85703 4.35703 9.625 4.64062 9.625H11.8594C12.143 9.625 12.375 9.85703 12.375 10.1406ZM16.5 5.23789V5.5H11V0H11.2621C11.5371 0 11.7992 0.107422 11.9926 0.300781L16.1992 4.51172C16.3926 4.70508 16.5 4.96719 16.5 5.23789Z" fill="#F3F7F9"/>
</svg>
