<svg width="14" height="5" viewBox="0 0 14 5" fill="none" xmlns="http://www.w3.org/2000/svg">
<path d="M9.03226 2.03226C9.03226 3.15565 8.12339 4.06452 7 4.06452C5.87661 4.06452 4.96774 3.15565 4.96774 2.03226C4.96774 0.908871 5.87661 0 7 0C8.12339 0 9.03226 0.908871 9.03226 2.03226ZM11.9677 0C10.8444 0 9.93548 0.908871 9.93548 2.03226C9.93548 3.15565 10.8444 4.06452 11.9677 4.06452C13.0911 4.06452 14 3.15565 14 2.03226C14 0.908871 13.0911 0 11.9677 0ZM2.03226 0C0.908871 0 0 0.908871 0 2.03226C0 3.15565 0.908871 4.06452 2.03226 4.06452C3.15565 4.06452 4.06452 3.15565 4.06452 2.03226C4.06452 0.908871 3.15565 0 2.03226 0Z" fill="#526069"/>
</svg>
