<svg width="34" height="20" viewBox="0 0 34 20" fill="none" xmlns="http://www.w3.org/2000/svg">
<path d="M0 5C0 2.23858 2.23858 0 5 0H29C31.7614 0 34 2.23858 34 5V15C34 17.7614 31.7614 20 29 20H5C2.23858 20 0 17.7614 0 15V5Z" fill="#FF4C52"/>
<path d="M9.6359 13.922C10.0232 13.922 10.3569 13.8777 10.6369 13.789C10.9169 13.7003 11.1456 13.5767 11.3229 13.418C11.5049 13.2547 11.6379 13.0633 11.7219 12.844C11.8059 12.62 11.8479 12.375 11.8479 12.109C11.8479 11.591 11.6636 11.1827 11.2949 10.884C10.9262 10.5807 10.3732 10.429 9.6359 10.429H7.4659V13.922H9.6359ZM7.4659 6.04V9.463H9.2579C9.64057 9.463 9.9719 9.421 10.2519 9.337C10.5366 9.253 10.7699 9.13633 10.9519 8.987C11.1386 8.83767 11.2762 8.658 11.3649 8.448C11.4536 8.23333 11.4979 8 11.4979 7.748C11.4979 7.15533 11.3206 6.72367 10.9659 6.453C10.6112 6.17767 10.0606 6.04 9.3139 6.04H7.4659ZM9.3139 4.969C9.9299 4.969 10.4596 5.02967 10.9029 5.151C11.3509 5.27233 11.7172 5.445 12.0019 5.669C12.2912 5.893 12.5036 6.16833 12.6389 6.495C12.7742 6.817 12.8419 7.181 12.8419 7.587C12.8419 7.83433 12.8022 8.07233 12.7229 8.301C12.6482 8.525 12.5339 8.735 12.3799 8.931C12.2259 9.127 12.0299 9.30433 11.7919 9.463C11.5586 9.617 11.2832 9.743 10.9659 9.841C11.7032 9.981 12.2562 10.2447 12.6249 10.632C12.9982 11.0147 13.1849 11.5187 13.1849 12.144C13.1849 12.5687 13.1056 12.956 12.9469 13.306C12.7929 13.656 12.5642 13.957 12.2609 14.209C11.9622 14.461 11.5936 14.657 11.1549 14.797C10.7162 14.9323 10.2169 15 9.6569 15H6.1149V4.969H9.3139ZM20.5523 7.909V15H19.8103C19.633 15 19.521 14.9137 19.4743 14.741L19.3763 13.978C19.0683 14.3187 18.723 14.594 18.3403 14.804C17.9576 15.0093 17.519 15.112 17.0243 15.112C16.637 15.112 16.294 15.049 15.9953 14.923C15.7013 14.7923 15.454 14.6103 15.2533 14.377C15.0526 14.1437 14.901 13.8613 14.7983 13.53C14.7003 13.1987 14.6513 12.8323 14.6513 12.431V7.909H15.8973V12.431C15.8973 12.9677 16.0186 13.383 16.2613 13.677C16.5086 13.971 16.8843 14.118 17.3883 14.118C17.757 14.118 18.1 14.0317 18.4173 13.859C18.7393 13.6817 19.0356 13.439 19.3063 13.131V7.909H20.5523ZM24.9989 11.535C25.2509 11.535 25.4726 11.5 25.6639 11.43C25.8553 11.36 26.0163 11.262 26.1469 11.136C26.2776 11.01 26.3756 10.8607 26.4409 10.688C26.5063 10.5107 26.5389 10.317 26.5389 10.107C26.5389 9.673 26.4059 9.32767 26.1399 9.071C25.8786 8.81433 25.4983 8.686 24.9989 8.686C24.4949 8.686 24.1099 8.81433 23.8439 9.071C23.5826 9.32767 23.4519 9.673 23.4519 10.107C23.4519 10.317 23.4846 10.5107 23.5499 10.688C23.6199 10.8607 23.7203 11.01 23.8509 11.136C23.9816 11.262 24.1426 11.36 24.3339 11.43C24.5253 11.5 24.7469 11.535 24.9989 11.535ZM27.2459 15.385C27.2459 15.2123 27.1969 15.0723 27.0989 14.965C27.0009 14.8577 26.8679 14.7737 26.6999 14.713C26.5366 14.6523 26.3453 14.6103 26.1259 14.587C25.9066 14.559 25.6733 14.538 25.4259 14.524C25.1833 14.51 24.9359 14.496 24.6839 14.482C24.4319 14.468 24.1893 14.4447 23.9559 14.412C23.6946 14.5333 23.4799 14.6873 23.3119 14.874C23.1486 15.056 23.0669 15.2707 23.0669 15.518C23.0669 15.6767 23.1066 15.8237 23.1859 15.959C23.2699 16.099 23.3959 16.218 23.5639 16.316C23.7319 16.4187 23.9419 16.498 24.1939 16.554C24.4506 16.6147 24.7516 16.645 25.0969 16.645C25.4329 16.645 25.7339 16.6147 25.9999 16.554C26.2659 16.4933 26.4899 16.407 26.6719 16.295C26.8586 16.183 27.0009 16.05 27.0989 15.896C27.1969 15.742 27.2459 15.5717 27.2459 15.385ZM28.5129 8.189V8.651C28.5129 8.805 28.4149 8.903 28.2189 8.945L27.4139 9.05C27.5726 9.358 27.6519 9.69867 27.6519 10.072C27.6519 10.4173 27.5843 10.7323 27.4489 11.017C27.3183 11.297 27.1363 11.5373 26.9029 11.738C26.6696 11.9387 26.3896 12.0927 26.0629 12.2C25.7363 12.3073 25.3816 12.361 24.9989 12.361C24.6676 12.361 24.3549 12.3213 24.0609 12.242C23.9116 12.3353 23.7973 12.4357 23.7179 12.543C23.6386 12.6457 23.5989 12.7507 23.5989 12.858C23.5989 13.026 23.6666 13.1543 23.8019 13.243C23.9419 13.327 24.1239 13.3877 24.3479 13.425C24.5719 13.4623 24.8263 13.4857 25.1109 13.495C25.4003 13.5043 25.6943 13.5207 25.9929 13.544C26.2963 13.5627 26.5903 13.5977 26.8749 13.649C27.1643 13.7003 27.4209 13.7843 27.6449 13.901C27.8689 14.0177 28.0486 14.1787 28.1839 14.384C28.3239 14.5893 28.3939 14.8553 28.3939 15.182C28.3939 15.4853 28.3169 15.7793 28.1629 16.064C28.0136 16.3487 27.7966 16.6007 27.5119 16.82C27.2273 17.044 26.8773 17.2213 26.4619 17.352C26.0513 17.4873 25.5869 17.555 25.0689 17.555C24.5509 17.555 24.0983 17.5037 23.7109 17.401C23.3236 17.2983 23.0016 17.1607 22.7449 16.988C22.4883 16.8153 22.2946 16.6147 22.1639 16.386C22.0379 16.162 21.9749 15.9263 21.9749 15.679C21.9749 15.329 22.0846 15.0327 22.3039 14.79C22.5233 14.5473 22.8243 14.3537 23.2069 14.209C22.9969 14.1157 22.8289 13.992 22.7029 13.838C22.5816 13.6793 22.5209 13.467 22.5209 13.201C22.5209 13.0983 22.5396 12.9933 22.5769 12.886C22.6143 12.774 22.6703 12.6643 22.7449 12.557C22.8243 12.445 22.9199 12.34 23.0319 12.242C23.1439 12.144 23.2746 12.0577 23.4239 11.983C23.0739 11.787 22.8009 11.528 22.6049 11.206C22.4089 10.8793 22.3109 10.5013 22.3109 10.072C22.3109 9.72667 22.3763 9.414 22.5069 9.134C22.6423 8.84933 22.8289 8.609 23.0669 8.413C23.3049 8.21233 23.5873 8.05833 23.9139 7.951C24.2453 7.84367 24.6069 7.79 24.9989 7.79C25.3069 7.79 25.5939 7.825 25.8599 7.895C26.1259 7.96033 26.3686 8.05833 26.5879 8.189H28.5129Z" fill="#FFDBDC"/>
</svg>
