<svg width="40" height="20" viewBox="0 0 40 20" fill="none" xmlns="http://www.w3.org/2000/svg">
<rect width="40" height="20" rx="5" fill="#FF8589"/>
<path d="M14.8347 4.969V15H13.4767V10.436H8.0657V15H6.7077V4.969H8.0657V9.442H13.4767V4.969H14.8347ZM18.3117 7.909V15H17.0657V7.909H18.3117ZM18.5777 5.683C18.5777 5.80433 18.5521 5.91867 18.5007 6.026C18.4541 6.12867 18.3887 6.222 18.3047 6.306C18.2254 6.38533 18.1297 6.44833 18.0177 6.495C17.9104 6.54167 17.7961 6.565 17.6747 6.565C17.5534 6.565 17.4391 6.54167 17.3317 6.495C17.2291 6.44833 17.1381 6.38533 17.0587 6.306C16.9794 6.222 16.9164 6.12867 16.8697 6.026C16.8231 5.91867 16.7997 5.80433 16.7997 5.683C16.7997 5.56167 16.8231 5.44733 16.8697 5.34C16.9164 5.228 16.9794 5.13233 17.0587 5.053C17.1381 4.969 17.2291 4.90367 17.3317 4.857C17.4391 4.81033 17.5534 4.787 17.6747 4.787C17.7961 4.787 17.9104 4.81033 18.0177 4.857C18.1297 4.90367 18.2254 4.969 18.3047 5.053C18.3887 5.13233 18.4541 5.228 18.5007 5.34C18.5521 5.44733 18.5777 5.56167 18.5777 5.683ZM22.83 11.535C23.082 11.535 23.3037 11.5 23.495 11.43C23.6863 11.36 23.8473 11.262 23.978 11.136C24.1087 11.01 24.2067 10.8607 24.272 10.688C24.3373 10.5107 24.37 10.317 24.37 10.107C24.37 9.673 24.237 9.32767 23.971 9.071C23.7097 8.81433 23.3293 8.686 22.83 8.686C22.326 8.686 21.941 8.81433 21.675 9.071C21.4137 9.32767 21.283 9.673 21.283 10.107C21.283 10.317 21.3157 10.5107 21.381 10.688C21.451 10.8607 21.5513 11.01 21.682 11.136C21.8127 11.262 21.9737 11.36 22.165 11.43C22.3563 11.5 22.578 11.535 22.83 11.535ZM25.077 15.385C25.077 15.2123 25.028 15.0723 24.93 14.965C24.832 14.8577 24.699 14.7737 24.531 14.713C24.3677 14.6523 24.1763 14.6103 23.957 14.587C23.7377 14.559 23.5043 14.538 23.257 14.524C23.0143 14.51 22.767 14.496 22.515 14.482C22.263 14.468 22.0203 14.4447 21.787 14.412C21.5257 14.5333 21.311 14.6873 21.143 14.874C20.9797 15.056 20.898 15.2707 20.898 15.518C20.898 15.6767 20.9377 15.8237 21.017 15.959C21.101 16.099 21.227 16.218 21.395 16.316C21.563 16.4187 21.773 16.498 22.025 16.554C22.2817 16.6147 22.5827 16.645 22.928 16.645C23.264 16.645 23.565 16.6147 23.831 16.554C24.097 16.4933 24.321 16.407 24.503 16.295C24.6897 16.183 24.832 16.05 24.93 15.896C25.028 15.742 25.077 15.5717 25.077 15.385ZM26.344 8.189V8.651C26.344 8.805 26.246 8.903 26.05 8.945L25.245 9.05C25.4037 9.358 25.483 9.69867 25.483 10.072C25.483 10.4173 25.4153 10.7323 25.28 11.017C25.1493 11.297 24.9673 11.5373 24.734 11.738C24.5007 11.9387 24.2207 12.0927 23.894 12.2C23.5673 12.3073 23.2127 12.361 22.83 12.361C22.4987 12.361 22.186 12.3213 21.892 12.242C21.7427 12.3353 21.6283 12.4357 21.549 12.543C21.4697 12.6457 21.43 12.7507 21.43 12.858C21.43 13.026 21.4977 13.1543 21.633 13.243C21.773 13.327 21.955 13.3877 22.179 13.425C22.403 13.4623 22.6573 13.4857 22.942 13.495C23.2313 13.5043 23.5253 13.5207 23.824 13.544C24.1273 13.5627 24.4213 13.5977 24.706 13.649C24.9953 13.7003 25.252 13.7843 25.476 13.901C25.7 14.0177 25.8797 14.1787 26.015 14.384C26.155 14.5893 26.225 14.8553 26.225 15.182C26.225 15.4853 26.148 15.7793 25.994 16.064C25.8447 16.3487 25.6277 16.6007 25.343 16.82C25.0583 17.044 24.7083 17.2213 24.293 17.352C23.8823 17.4873 23.418 17.555 22.9 17.555C22.382 17.555 21.9293 17.5037 21.542 17.401C21.1547 17.2983 20.8327 17.1607 20.576 16.988C20.3193 16.8153 20.1257 16.6147 19.995 16.386C19.869 16.162 19.806 15.9263 19.806 15.679C19.806 15.329 19.9157 15.0327 20.135 14.79C20.3543 14.5473 20.6553 14.3537 21.038 14.209C20.828 14.1157 20.66 13.992 20.534 13.838C20.4127 13.6793 20.352 13.467 20.352 13.201C20.352 13.0983 20.3707 12.9933 20.408 12.886C20.4453 12.774 20.5013 12.6643 20.576 12.557C20.6553 12.445 20.751 12.34 20.863 12.242C20.975 12.144 21.1057 12.0577 21.255 11.983C20.905 11.787 20.632 11.528 20.436 11.206C20.24 10.8793 20.142 10.5013 20.142 10.072C20.142 9.72667 20.2073 9.414 20.338 9.134C20.4733 8.84933 20.66 8.609 20.898 8.413C21.136 8.21233 21.4183 8.05833 21.745 7.951C22.0763 7.84367 22.438 7.79 22.83 7.79C23.138 7.79 23.425 7.825 23.691 7.895C23.957 7.96033 24.1997 8.05833 24.419 8.189H26.344ZM28.8854 8.854C29.1888 8.532 29.5248 8.27533 29.8934 8.084C30.2621 7.89267 30.6868 7.797 31.1674 7.797C31.5548 7.797 31.8954 7.86233 32.1894 7.993C32.4881 8.119 32.7354 8.301 32.9314 8.539C33.1321 8.77233 33.2838 9.05467 33.3864 9.386C33.4891 9.71733 33.5404 10.0837 33.5404 10.485V15H32.2874V10.485C32.2874 9.94833 32.1638 9.533 31.9164 9.239C31.6738 8.94033 31.3028 8.791 30.8034 8.791C30.4348 8.791 30.0894 8.87967 29.7674 9.057C29.4501 9.23433 29.1561 9.47467 28.8854 9.778V15H27.6324V4.689H28.8854V8.854Z" fill="#E62020"/>
</svg>
