<svg width="58" height="20" viewBox="0 0 58 20" fill="none" xmlns="http://www.w3.org/2000/svg">
<rect width="58" height="20" rx="5" fill="#FF666B"/>
<path d="M14.5983 4.969V15H13.2403V10.436H7.82925V15H6.47125V4.969H7.82925V9.442H13.2403V4.969H14.5983ZM18.0753 7.909V15H16.8293V7.909H18.0753ZM18.3413 5.683C18.3413 5.80433 18.3156 5.91867 18.2643 6.026C18.2176 6.12867 18.1523 6.222 18.0683 6.306C17.9889 6.38533 17.8933 6.44833 17.7813 6.495C17.6739 6.54167 17.5596 6.565 17.4383 6.565C17.3169 6.565 17.2026 6.54167 17.0953 6.495C16.9926 6.44833 16.9016 6.38533 16.8223 6.306C16.7429 6.222 16.6799 6.12867 16.6333 6.026C16.5866 5.91867 16.5633 5.80433 16.5633 5.683C16.5633 5.56167 16.5866 5.44733 16.6333 5.34C16.6799 5.228 16.7429 5.13233 16.8223 5.053C16.9016 4.969 16.9926 4.90367 17.0953 4.857C17.2026 4.81033 17.3169 4.787 17.4383 4.787C17.5596 4.787 17.6739 4.81033 17.7813 4.857C17.8933 4.90367 17.9889 4.969 18.0683 5.053C18.1523 5.13233 18.2176 5.228 18.2643 5.34C18.3156 5.44733 18.3413 5.56167 18.3413 5.683ZM22.5936 11.535C22.8456 11.535 23.0672 11.5 23.2586 11.43C23.4499 11.36 23.6109 11.262 23.7416 11.136C23.8722 11.01 23.9702 10.8607 24.0356 10.688C24.1009 10.5107 24.1336 10.317 24.1336 10.107C24.1336 9.673 24.0006 9.32767 23.7346 9.071C23.4732 8.81433 23.0929 8.686 22.5936 8.686C22.0896 8.686 21.7046 8.81433 21.4386 9.071C21.1772 9.32767 21.0466 9.673 21.0466 10.107C21.0466 10.317 21.0792 10.5107 21.1446 10.688C21.2146 10.8607 21.3149 11.01 21.4456 11.136C21.5762 11.262 21.7372 11.36 21.9286 11.43C22.1199 11.5 22.3416 11.535 22.5936 11.535ZM24.8406 15.385C24.8406 15.2123 24.7916 15.0723 24.6936 14.965C24.5956 14.8577 24.4626 14.7737 24.2946 14.713C24.1312 14.6523 23.9399 14.6103 23.7206 14.587C23.5012 14.559 23.2679 14.538 23.0206 14.524C22.7779 14.51 22.5306 14.496 22.2786 14.482C22.0266 14.468 21.7839 14.4447 21.5506 14.412C21.2892 14.5333 21.0746 14.6873 20.9066 14.874C20.7432 15.056 20.6616 15.2707 20.6616 15.518C20.6616 15.6767 20.7012 15.8237 20.7806 15.959C20.8646 16.099 20.9906 16.218 21.1586 16.316C21.3266 16.4187 21.5366 16.498 21.7886 16.554C22.0452 16.6147 22.3462 16.645 22.6916 16.645C23.0276 16.645 23.3286 16.6147 23.5946 16.554C23.8606 16.4933 24.0846 16.407 24.2666 16.295C24.4532 16.183 24.5956 16.05 24.6936 15.896C24.7916 15.742 24.8406 15.5717 24.8406 15.385ZM26.1076 8.189V8.651C26.1076 8.805 26.0096 8.903 25.8136 8.945L25.0086 9.05C25.1672 9.358 25.2466 9.69867 25.2466 10.072C25.2466 10.4173 25.1789 10.7323 25.0436 11.017C24.9129 11.297 24.7309 11.5373 24.4976 11.738C24.2642 11.9387 23.9842 12.0927 23.6576 12.2C23.3309 12.3073 22.9762 12.361 22.5936 12.361C22.2622 12.361 21.9496 12.3213 21.6556 12.242C21.5062 12.3353 21.3919 12.4357 21.3126 12.543C21.2332 12.6457 21.1936 12.7507 21.1936 12.858C21.1936 13.026 21.2612 13.1543 21.3966 13.243C21.5366 13.327 21.7186 13.3877 21.9426 13.425C22.1666 13.4623 22.4209 13.4857 22.7056 13.495C22.9949 13.5043 23.2889 13.5207 23.5876 13.544C23.8909 13.5627 24.1849 13.5977 24.4696 13.649C24.7589 13.7003 25.0156 13.7843 25.2396 13.901C25.4636 14.0177 25.6432 14.1787 25.7786 14.384C25.9186 14.5893 25.9886 14.8553 25.9886 15.182C25.9886 15.4853 25.9116 15.7793 25.7576 16.064C25.6082 16.3487 25.3912 16.6007 25.1066 16.82C24.8219 17.044 24.4719 17.2213 24.0566 17.352C23.6459 17.4873 23.1816 17.555 22.6636 17.555C22.1456 17.555 21.6929 17.5037 21.3056 17.401C20.9182 17.2983 20.5962 17.1607 20.3396 16.988C20.0829 16.8153 19.8892 16.6147 19.7586 16.386C19.6326 16.162 19.5696 15.9263 19.5696 15.679C19.5696 15.329 19.6792 15.0327 19.8986 14.79C20.1179 14.5473 20.4189 14.3537 20.8016 14.209C20.5916 14.1157 20.4236 13.992 20.2976 13.838C20.1762 13.6793 20.1156 13.467 20.1156 13.201C20.1156 13.0983 20.1342 12.9933 20.1716 12.886C20.2089 12.774 20.2649 12.6643 20.3396 12.557C20.4189 12.445 20.5146 12.34 20.6266 12.242C20.7386 12.144 20.8692 12.0577 21.0186 11.983C20.6686 11.787 20.3956 11.528 20.1996 11.206C20.0036 10.8793 19.9056 10.5013 19.9056 10.072C19.9056 9.72667 19.9709 9.414 20.1016 9.134C20.2369 8.84933 20.4236 8.609 20.6616 8.413C20.8996 8.21233 21.1819 8.05833 21.5086 7.951C21.8399 7.84367 22.2016 7.79 22.5936 7.79C22.9016 7.79 23.1886 7.825 23.4546 7.895C23.7206 7.96033 23.9632 8.05833 24.1826 8.189H26.1076ZM28.649 8.854C28.9523 8.532 29.2883 8.27533 29.657 8.084C30.0257 7.89267 30.4503 7.797 30.931 7.797C31.3183 7.797 31.659 7.86233 31.953 7.993C32.2517 8.119 32.499 8.301 32.695 8.539C32.8957 8.77233 33.0473 9.05467 33.15 9.386C33.2527 9.71733 33.304 10.0837 33.304 10.485V15H32.051V10.485C32.051 9.94833 31.9273 9.533 31.68 9.239C31.4373 8.94033 31.0663 8.791 30.567 8.791C30.1983 8.791 29.853 8.87967 29.531 9.057C29.2137 9.23433 28.9197 9.47467 28.649 9.778V15H27.396V4.689H28.649V8.854ZM39.9486 10.681C39.9486 10.3917 39.9066 10.128 39.8226 9.89C39.7433 9.64733 39.6243 9.43967 39.4656 9.267C39.3116 9.08967 39.1226 8.95433 38.8986 8.861C38.6746 8.763 38.4203 8.714 38.1356 8.714C37.5383 8.714 37.0646 8.889 36.7146 9.239C36.3693 9.58433 36.1546 10.065 36.0706 10.681H39.9486ZM40.9566 14.006C40.8026 14.1927 40.6183 14.356 40.4036 14.496C40.189 14.6313 39.958 14.7433 39.7106 14.832C39.468 14.9207 39.216 14.986 38.9546 15.028C38.6933 15.0747 38.4343 15.098 38.1776 15.098C37.6876 15.098 37.235 15.0163 36.8196 14.853C36.409 14.685 36.052 14.4423 35.7486 14.125C35.45 13.803 35.2166 13.4063 35.0486 12.935C34.8806 12.4637 34.7966 11.9223 34.7966 11.311C34.7966 10.8163 34.8713 10.3543 35.0206 9.925C35.1746 9.49567 35.394 9.12467 35.6786 8.812C35.9633 8.49467 36.311 8.24733 36.7216 8.07C37.1323 7.888 37.5943 7.797 38.1076 7.797C38.5323 7.797 38.9243 7.86933 39.2836 8.014C39.6476 8.154 39.9603 8.35933 40.2216 8.63C40.4876 8.896 40.6953 9.22733 40.8446 9.624C40.994 10.016 41.0686 10.464 41.0686 10.968C41.0686 11.164 41.0476 11.2947 41.0056 11.36C40.9636 11.4253 40.8843 11.458 40.7676 11.458H36.0286C36.0426 11.906 36.1033 12.2957 36.2106 12.627C36.3226 12.9583 36.4766 13.236 36.6726 13.46C36.8686 13.6793 37.102 13.845 37.3726 13.957C37.6433 14.0643 37.9466 14.118 38.2826 14.118C38.5953 14.118 38.8636 14.083 39.0876 14.013C39.3163 13.9383 39.5123 13.859 39.6756 13.775C39.839 13.691 39.9743 13.614 40.0816 13.544C40.1936 13.4693 40.2893 13.432 40.3686 13.432C40.4713 13.432 40.5506 13.4717 40.6066 13.551L40.9566 14.006ZM46.7291 9.078C46.6731 9.18067 46.5868 9.232 46.4701 9.232C46.4001 9.232 46.3208 9.20633 46.2321 9.155C46.1435 9.10367 46.0338 9.04767 45.9031 8.987C45.7771 8.92167 45.6255 8.86333 45.4481 8.812C45.2708 8.756 45.0608 8.728 44.8181 8.728C44.6081 8.728 44.4191 8.756 44.2511 8.812C44.0831 8.86333 43.9385 8.93567 43.8171 9.029C43.7005 9.12233 43.6095 9.232 43.5441 9.358C43.4835 9.47933 43.4531 9.61233 43.4531 9.757C43.4531 9.939 43.5045 10.0907 43.6071 10.212C43.7145 10.3333 43.8545 10.4383 44.0271 10.527C44.1998 10.6157 44.3958 10.695 44.6151 10.765C44.8345 10.8303 45.0585 10.9027 45.2871 10.982C45.5205 11.0567 45.7468 11.1407 45.9661 11.234C46.1855 11.3273 46.3815 11.444 46.5541 11.584C46.7268 11.724 46.8645 11.8967 46.9671 12.102C47.0745 12.3027 47.1281 12.5453 47.1281 12.83C47.1281 13.1567 47.0698 13.46 46.9531 13.74C46.8365 14.0153 46.6638 14.2557 46.4351 14.461C46.2065 14.6617 45.9265 14.8203 45.5951 14.937C45.2638 15.0537 44.8811 15.112 44.4471 15.112C43.9525 15.112 43.5045 15.0327 43.1031 14.874C42.7018 14.7107 42.3611 14.503 42.0811 14.251L42.3751 13.775C42.4125 13.7143 42.4568 13.6677 42.5081 13.635C42.5595 13.6023 42.6248 13.586 42.7041 13.586C42.7881 13.586 42.8768 13.6187 42.9701 13.684C43.0635 13.7493 43.1755 13.8217 43.3061 13.901C43.4415 13.9803 43.6048 14.0527 43.7961 14.118C43.9875 14.1833 44.2255 14.216 44.5101 14.216C44.7528 14.216 44.9651 14.1857 45.1471 14.125C45.3291 14.0597 45.4808 13.9733 45.6021 13.866C45.7235 13.7587 45.8121 13.635 45.8681 13.495C45.9288 13.355 45.9591 13.2057 45.9591 13.047C45.9591 12.851 45.9055 12.69 45.7981 12.564C45.6955 12.4333 45.5578 12.3237 45.3851 12.235C45.2125 12.1417 45.0141 12.0623 44.7901 11.997C44.5708 11.927 44.3445 11.8547 44.1111 11.78C43.8825 11.7053 43.6561 11.6213 43.4321 11.528C43.2128 11.43 43.0168 11.3087 42.8441 11.164C42.6715 11.0193 42.5315 10.842 42.4241 10.632C42.3215 10.4173 42.2701 10.1583 42.2701 9.855C42.2701 9.58433 42.3261 9.32533 42.4381 9.078C42.5501 8.826 42.7135 8.60667 42.9281 8.42C43.1428 8.22867 43.4065 8.077 43.7191 7.965C44.0318 7.853 44.3888 7.797 44.7901 7.797C45.2568 7.797 45.6745 7.87167 46.0431 8.021C46.4165 8.16567 46.7385 8.36633 47.0091 8.623L46.7291 9.078ZM50.8328 15.112C50.2728 15.112 49.8411 14.9557 49.5378 14.643C49.2391 14.3303 49.0898 13.88 49.0898 13.292V8.952H48.2358C48.1611 8.952 48.0981 8.931 48.0468 8.889C47.9954 8.84233 47.9698 8.77233 47.9698 8.679V8.182L49.1318 8.035L49.4188 5.844C49.4328 5.774 49.4631 5.718 49.5098 5.676C49.5611 5.62933 49.6264 5.606 49.7058 5.606H50.3358V8.049H52.3868V8.952H50.3358V13.208C50.3358 13.5067 50.4081 13.7283 50.5528 13.873C50.6974 14.0177 50.8841 14.09 51.1128 14.09C51.2434 14.09 51.3554 14.0737 51.4488 14.041C51.5468 14.0037 51.6308 13.964 51.7008 13.922C51.7708 13.88 51.8291 13.8427 51.8758 13.81C51.9271 13.7727 51.9714 13.754 52.0088 13.754C52.0741 13.754 52.1324 13.7937 52.1838 13.873L52.5478 14.468C52.3331 14.6687 52.0741 14.8273 51.7708 14.944C51.4674 15.056 51.1548 15.112 50.8328 15.112Z" fill="#FFDBDC"/>
</svg>
