<svg width="34" height="20" viewBox="0 0 34 20" fill="none" xmlns="http://www.w3.org/2000/svg">
<path d="M0 5C0 2.23858 2.23858 0 5 0H29C31.7614 0 34 2.23858 34 5V15C34 17.7614 31.7614 20 29 20H5C2.23858 20 0 17.7614 0 15V5Z" fill="#FFF39C"/>
<path d="M6.57522 15H5.21722V4.969H6.57522V15ZM13.262 9.596C13.0286 9.28333 12.7766 9.06633 12.506 8.945C12.2353 8.819 11.932 8.756 11.596 8.756C10.938 8.756 10.4316 8.99167 10.077 9.463C9.72231 9.93433 9.54497 10.6063 9.54497 11.479C9.54497 11.941 9.58464 12.3377 9.66397 12.669C9.74331 12.9957 9.85997 13.2663 10.014 13.481C10.168 13.691 10.357 13.845 10.581 13.943C10.805 14.041 11.0593 14.09 11.344 14.09C11.7546 14.09 12.1116 13.9967 12.415 13.81C12.723 13.6233 13.0053 13.3597 13.262 13.019V9.596ZM14.508 4.689V15H13.766C13.5886 15 13.4766 14.9137 13.43 14.741L13.318 13.88C13.0146 14.244 12.6693 14.538 12.282 14.762C11.8946 14.986 11.4466 15.098 10.938 15.098C10.532 15.098 10.1633 15.021 9.83197 14.867C9.50064 14.7083 9.21831 14.4773 8.98497 14.174C8.75164 13.8707 8.57197 13.4927 8.44597 13.04C8.31997 12.5873 8.25697 12.067 8.25697 11.479C8.25697 10.9563 8.32697 10.471 8.46697 10.023C8.60697 9.57033 8.80764 9.17833 9.06897 8.847C9.33031 8.51567 9.64997 8.25667 10.028 8.07C10.4106 7.87867 10.84 7.783 11.316 7.783C11.75 7.783 12.121 7.85767 12.429 8.007C12.7416 8.15167 13.0193 8.35467 13.262 8.616V4.689H14.508ZM21.222 10.681C21.222 10.3917 21.18 10.128 21.096 9.89C21.0166 9.64733 20.8976 9.43967 20.739 9.267C20.585 9.08967 20.396 8.95433 20.172 8.861C19.948 8.763 19.6936 8.714 19.409 8.714C18.8116 8.714 18.338 8.889 17.988 9.239C17.6426 9.58433 17.428 10.065 17.344 10.681H21.222ZM22.23 14.006C22.076 14.1927 21.8916 14.356 21.677 14.496C21.4623 14.6313 21.2313 14.7433 20.984 14.832C20.7413 14.9207 20.4893 14.986 20.228 15.028C19.9666 15.0747 19.7076 15.098 19.451 15.098C18.961 15.098 18.5083 15.0163 18.093 14.853C17.6823 14.685 17.3253 14.4423 17.022 14.125C16.7233 13.803 16.49 13.4063 16.322 12.935C16.154 12.4637 16.07 11.9223 16.07 11.311C16.07 10.8163 16.1446 10.3543 16.294 9.925C16.448 9.49567 16.6673 9.12467 16.952 8.812C17.2366 8.49467 17.5843 8.24733 17.995 8.07C18.4056 7.888 18.8676 7.797 19.381 7.797C19.8056 7.797 20.1976 7.86933 20.557 8.014C20.921 8.154 21.2336 8.35933 21.495 8.63C21.761 8.896 21.9686 9.22733 22.118 9.624C22.2673 10.016 22.342 10.464 22.342 10.968C22.342 11.164 22.321 11.2947 22.279 11.36C22.237 11.4253 22.1576 11.458 22.041 11.458H17.302C17.316 11.906 17.3766 12.2957 17.484 12.627C17.596 12.9583 17.75 13.236 17.946 13.46C18.142 13.6793 18.3753 13.845 18.646 13.957C18.9166 14.0643 19.22 14.118 19.556 14.118C19.8686 14.118 20.137 14.083 20.361 14.013C20.5896 13.9383 20.7856 13.859 20.949 13.775C21.1123 13.691 21.2476 13.614 21.355 13.544C21.467 13.4693 21.5626 13.432 21.642 13.432C21.7446 13.432 21.824 13.4717 21.88 13.551L22.23 14.006ZM27.7154 11.808C27.1414 11.8267 26.6514 11.8733 26.2454 11.948C25.8441 12.018 25.5151 12.1113 25.2584 12.228C25.0064 12.3447 24.8221 12.4823 24.7054 12.641C24.5934 12.7997 24.5374 12.977 24.5374 13.173C24.5374 13.3597 24.5678 13.5207 24.6284 13.656C24.6891 13.7913 24.7708 13.9033 24.8734 13.992C24.9808 14.076 25.1044 14.139 25.2444 14.181C25.3891 14.2183 25.5431 14.237 25.7064 14.237C25.9258 14.237 26.1264 14.216 26.3084 14.174C26.4904 14.1273 26.6608 14.062 26.8194 13.978C26.9828 13.894 27.1368 13.7937 27.2814 13.677C27.4308 13.5603 27.5754 13.4273 27.7154 13.278V11.808ZM23.6904 8.91C24.0824 8.532 24.5048 8.24967 24.9574 8.063C25.4101 7.87633 25.9118 7.783 26.4624 7.783C26.8591 7.783 27.2114 7.84833 27.5194 7.979C27.8274 8.10967 28.0864 8.29167 28.2964 8.525C28.5064 8.75833 28.6651 9.04067 28.7724 9.372C28.8798 9.70333 28.9334 10.0673 28.9334 10.464V15H28.3804C28.2591 15 28.1658 14.9813 28.1004 14.944C28.0351 14.902 27.9838 14.8227 27.9464 14.706L27.8064 14.034C27.6198 14.2067 27.4378 14.3607 27.2604 14.496C27.0831 14.6267 26.8964 14.7387 26.7004 14.832C26.5044 14.9207 26.2944 14.9883 26.0704 15.035C25.8511 15.0863 25.6061 15.112 25.3354 15.112C25.0601 15.112 24.8011 15.0747 24.5584 15C24.3158 14.9207 24.1034 14.804 23.9214 14.65C23.7441 14.496 23.6018 14.3023 23.4944 14.069C23.3918 13.831 23.3404 13.551 23.3404 13.229C23.3404 12.949 23.4174 12.6807 23.5714 12.424C23.7254 12.1627 23.9751 11.9317 24.3204 11.731C24.6658 11.5303 25.1161 11.367 25.6714 11.241C26.2268 11.1103 26.9081 11.0357 27.7154 11.017V10.464C27.7154 9.91333 27.5964 9.498 27.3584 9.218C27.1204 8.93333 26.7728 8.791 26.3154 8.791C26.0074 8.791 25.7484 8.83067 25.5384 8.91C25.3331 8.98467 25.1534 9.071 24.9994 9.169C24.8501 9.26233 24.7194 9.34867 24.6074 9.428C24.5001 9.50267 24.3928 9.54 24.2854 9.54C24.2014 9.54 24.1291 9.519 24.0684 9.477C24.0078 9.43033 23.9564 9.37433 23.9144 9.309L23.6904 8.91Z" fill="#FAA700"/>
</svg>
