<svg width="35" height="20" viewBox="0 0 35 20" fill="none" xmlns="http://www.w3.org/2000/svg">
<rect width="34.8837" height="20" rx="5" fill="#FAB06B"/>
<path d="M11.7161 13.859V15H6.02514V4.969H7.37614V13.859H11.7161ZM15.4057 7.797C15.9237 7.797 16.3904 7.88333 16.8057 8.056C17.221 8.22867 17.5757 8.47367 17.8697 8.791C18.1637 9.10833 18.3877 9.49333 18.5417 9.946C18.7004 10.394 18.7797 10.8957 18.7797 11.451C18.7797 12.011 18.7004 12.515 18.5417 12.963C18.3877 13.411 18.1637 13.7937 17.8697 14.111C17.5757 14.4283 17.221 14.6733 16.8057 14.846C16.3904 15.014 15.9237 15.098 15.4057 15.098C14.883 15.098 14.4117 15.014 13.9917 14.846C13.5764 14.6733 13.2217 14.4283 12.9277 14.111C12.6337 13.7937 12.4074 13.411 12.2487 12.963C12.0947 12.515 12.0177 12.011 12.0177 11.451C12.0177 10.8957 12.0947 10.394 12.2487 9.946C12.4074 9.49333 12.6337 9.10833 12.9277 8.791C13.2217 8.47367 13.5764 8.22867 13.9917 8.056C14.4117 7.88333 14.883 7.797 15.4057 7.797ZM15.4057 14.125C16.1057 14.125 16.6284 13.8917 16.9737 13.425C17.319 12.9537 17.4917 12.298 17.4917 11.458C17.4917 10.6133 17.319 9.95533 16.9737 9.484C16.6284 9.01267 16.1057 8.777 15.4057 8.777C15.051 8.777 14.7407 8.83767 14.4747 8.959C14.2134 9.08033 13.994 9.25533 13.8167 9.484C13.644 9.71267 13.5134 9.995 13.4247 10.331C13.3407 10.6623 13.2987 11.038 13.2987 11.458C13.2987 12.298 13.4714 12.9537 13.8167 13.425C14.1667 13.8917 14.6964 14.125 15.4057 14.125ZM30.0297 7.909L27.7337 15H26.7467C26.6253 15 26.5413 14.9207 26.4947 14.762L24.9267 9.953C24.8893 9.84567 24.859 9.73833 24.8357 9.631C24.8123 9.519 24.789 9.40933 24.7657 9.302C24.7423 9.40933 24.719 9.519 24.6957 9.631C24.6723 9.73833 24.642 9.848 24.6047 9.96L23.0087 14.762C22.9667 14.9207 22.8733 15 22.7287 15H21.7907L19.4947 7.909H20.4747C20.5727 7.909 20.6543 7.93467 20.7197 7.986C20.7897 8.03733 20.8363 8.098 20.8597 8.168L22.2177 12.732C22.297 13.068 22.36 13.3853 22.4067 13.684C22.4487 13.53 22.4907 13.3737 22.5327 13.215C22.5793 13.0563 22.6283 12.8953 22.6797 12.732L24.1777 8.14C24.201 8.07 24.2407 8.01167 24.2967 7.965C24.3573 7.91833 24.4297 7.895 24.5137 7.895H25.0597C25.153 7.895 25.23 7.91833 25.2907 7.965C25.3513 8.01167 25.3933 8.07 25.4167 8.14L26.8797 12.732C26.931 12.8953 26.9777 13.0563 27.0197 13.215C27.0617 13.3737 27.1013 13.53 27.1387 13.684C27.162 13.53 27.19 13.376 27.2227 13.222C27.26 13.0633 27.2997 12.9 27.3417 12.732L28.7277 8.168C28.751 8.09333 28.7953 8.03267 28.8607 7.986C28.926 7.93467 29.003 7.909 29.0917 7.909H30.0297Z" fill="#B53F00"/>
</svg>
