<svg width="53" height="20" viewBox="0 0 53 20" fill="none" xmlns="http://www.w3.org/2000/svg">
<rect width="53" height="20" rx="5" fill="#FFC894"/>
<path d="M11.4109 13.859V15H5.71986V4.969H7.07086V13.859H11.4109ZM15.1004 7.797C15.6184 7.797 16.0851 7.88333 16.5004 8.056C16.9157 8.22867 17.2704 8.47367 17.5644 8.791C17.8584 9.10833 18.0824 9.49333 18.2364 9.946C18.3951 10.394 18.4744 10.8957 18.4744 11.451C18.4744 12.011 18.3951 12.515 18.2364 12.963C18.0824 13.411 17.8584 13.7937 17.5644 14.111C17.2704 14.4283 16.9157 14.6733 16.5004 14.846C16.0851 15.014 15.6184 15.098 15.1004 15.098C14.5777 15.098 14.1064 15.014 13.6864 14.846C13.2711 14.6733 12.9164 14.4283 12.6224 14.111C12.3284 13.7937 12.1021 13.411 11.9434 12.963C11.7894 12.515 11.7124 12.011 11.7124 11.451C11.7124 10.8957 11.7894 10.394 11.9434 9.946C12.1021 9.49333 12.3284 9.10833 12.6224 8.791C12.9164 8.47367 13.2711 8.22867 13.6864 8.056C14.1064 7.88333 14.5777 7.797 15.1004 7.797ZM15.1004 14.125C15.8004 14.125 16.3231 13.8917 16.6684 13.425C17.0137 12.9537 17.1864 12.298 17.1864 11.458C17.1864 10.6133 17.0137 9.95533 16.6684 9.484C16.3231 9.01267 15.8004 8.777 15.1004 8.777C14.7457 8.777 14.4354 8.83767 14.1694 8.959C13.9081 9.08033 13.6887 9.25533 13.5114 9.484C13.3387 9.71267 13.2081 9.995 13.1194 10.331C13.0354 10.6623 12.9934 11.038 12.9934 11.458C12.9934 12.298 13.1661 12.9537 13.5114 13.425C13.8614 13.8917 14.3911 14.125 15.1004 14.125ZM29.7244 7.909L27.4284 15H26.4414C26.3201 15 26.2361 14.9207 26.1894 14.762L24.6214 9.953C24.5841 9.84567 24.5537 9.73833 24.5304 9.631C24.5071 9.519 24.4837 9.40933 24.4604 9.302C24.4371 9.40933 24.4137 9.519 24.3904 9.631C24.3671 9.73833 24.3367 9.848 24.2994 9.96L22.7034 14.762C22.6614 14.9207 22.5681 15 22.4234 15H21.4854L19.1894 7.909H20.1694C20.2674 7.909 20.3491 7.93467 20.4144 7.986C20.4844 8.03733 20.5311 8.098 20.5544 8.168L21.9124 12.732C21.9917 13.068 22.0547 13.3853 22.1014 13.684C22.1434 13.53 22.1854 13.3737 22.2274 13.215C22.2741 13.0563 22.3231 12.8953 22.3744 12.732L23.8724 8.14C23.8957 8.07 23.9354 8.01167 23.9914 7.965C24.0521 7.91833 24.1244 7.895 24.2084 7.895H24.7544C24.8477 7.895 24.9247 7.91833 24.9854 7.965C25.0461 8.01167 25.0881 8.07 25.1114 8.14L26.5744 12.732C26.6257 12.8953 26.6724 13.0563 26.7144 13.215C26.7564 13.3737 26.7961 13.53 26.8334 13.684C26.8567 13.53 26.8847 13.376 26.9174 13.222C26.9547 13.0633 26.9944 12.9 27.0364 12.732L28.4224 8.168C28.4457 8.09333 28.4901 8.03267 28.5554 7.986C28.6207 7.93467 28.6977 7.909 28.7864 7.909H29.7244ZM35.5879 10.681C35.5879 10.3917 35.5459 10.128 35.4619 9.89C35.3825 9.64733 35.2635 9.43967 35.1049 9.267C34.9509 9.08967 34.7619 8.95433 34.5379 8.861C34.3139 8.763 34.0595 8.714 33.7749 8.714C33.1775 8.714 32.7039 8.889 32.3539 9.239C32.0085 9.58433 31.7939 10.065 31.7099 10.681H35.5879ZM36.5959 14.006C36.4419 14.1927 36.2575 14.356 36.0429 14.496C35.8282 14.6313 35.5972 14.7433 35.3499 14.832C35.1072 14.9207 34.8552 14.986 34.5939 15.028C34.3325 15.0747 34.0735 15.098 33.8169 15.098C33.3269 15.098 32.8742 15.0163 32.4589 14.853C32.0482 14.685 31.6912 14.4423 31.3879 14.125C31.0892 13.803 30.8559 13.4063 30.6879 12.935C30.5199 12.4637 30.4359 11.9223 30.4359 11.311C30.4359 10.8163 30.5105 10.3543 30.6599 9.925C30.8139 9.49567 31.0332 9.12467 31.3179 8.812C31.6025 8.49467 31.9502 8.24733 32.3609 8.07C32.7715 7.888 33.2335 7.797 33.7469 7.797C34.1715 7.797 34.5635 7.86933 34.9229 8.014C35.2869 8.154 35.5995 8.35933 35.8609 8.63C36.1269 8.896 36.3345 9.22733 36.4839 9.624C36.6332 10.016 36.7079 10.464 36.7079 10.968C36.7079 11.164 36.6869 11.2947 36.6449 11.36C36.6029 11.4253 36.5235 11.458 36.4069 11.458H31.6679C31.6819 11.906 31.7425 12.2957 31.8499 12.627C31.9619 12.9583 32.1159 13.236 32.3119 13.46C32.5079 13.6793 32.7412 13.845 33.0119 13.957C33.2825 14.0643 33.5859 14.118 33.9219 14.118C34.2345 14.118 34.5029 14.083 34.7269 14.013C34.9555 13.9383 35.1515 13.859 35.3149 13.775C35.4782 13.691 35.6135 13.614 35.7209 13.544C35.8329 13.4693 35.9285 13.432 36.0079 13.432C36.1105 13.432 36.1899 13.4717 36.2459 13.551L36.5959 14.006ZM42.3684 9.078C42.3124 9.18067 42.226 9.232 42.1094 9.232C42.0394 9.232 41.96 9.20633 41.8714 9.155C41.7827 9.10367 41.673 9.04767 41.5424 8.987C41.4164 8.92167 41.2647 8.86333 41.0874 8.812C40.91 8.756 40.7 8.728 40.4574 8.728C40.2474 8.728 40.0584 8.756 39.8904 8.812C39.7224 8.86333 39.5777 8.93567 39.4564 9.029C39.3397 9.12233 39.2487 9.232 39.1834 9.358C39.1227 9.47933 39.0924 9.61233 39.0924 9.757C39.0924 9.939 39.1437 10.0907 39.2464 10.212C39.3537 10.3333 39.4937 10.4383 39.6664 10.527C39.839 10.6157 40.035 10.695 40.2544 10.765C40.4737 10.8303 40.6977 10.9027 40.9264 10.982C41.1597 11.0567 41.386 11.1407 41.6054 11.234C41.8247 11.3273 42.0207 11.444 42.1934 11.584C42.366 11.724 42.5037 11.8967 42.6064 12.102C42.7137 12.3027 42.7674 12.5453 42.7674 12.83C42.7674 13.1567 42.709 13.46 42.5924 13.74C42.4757 14.0153 42.303 14.2557 42.0744 14.461C41.8457 14.6617 41.5657 14.8203 41.2344 14.937C40.903 15.0537 40.5204 15.112 40.0864 15.112C39.5917 15.112 39.1437 15.0327 38.7424 14.874C38.341 14.7107 38.0004 14.503 37.7204 14.251L38.0144 13.775C38.0517 13.7143 38.096 13.6677 38.1474 13.635C38.1987 13.6023 38.264 13.586 38.3434 13.586C38.4274 13.586 38.516 13.6187 38.6094 13.684C38.7027 13.7493 38.8147 13.8217 38.9454 13.901C39.0807 13.9803 39.244 14.0527 39.4354 14.118C39.6267 14.1833 39.8647 14.216 40.1494 14.216C40.392 14.216 40.6044 14.1857 40.7864 14.125C40.9684 14.0597 41.12 13.9733 41.2414 13.866C41.3627 13.7587 41.4514 13.635 41.5074 13.495C41.568 13.355 41.5984 13.2057 41.5984 13.047C41.5984 12.851 41.5447 12.69 41.4374 12.564C41.3347 12.4333 41.197 12.3237 41.0244 12.235C40.8517 12.1417 40.6534 12.0623 40.4294 11.997C40.21 11.927 39.9837 11.8547 39.7504 11.78C39.5217 11.7053 39.2954 11.6213 39.0714 11.528C38.852 11.43 38.656 11.3087 38.4834 11.164C38.3107 11.0193 38.1707 10.842 38.0634 10.632C37.9607 10.4173 37.9094 10.1583 37.9094 9.855C37.9094 9.58433 37.9654 9.32533 38.0774 9.078C38.1894 8.826 38.3527 8.60667 38.5674 8.42C38.782 8.22867 39.0457 8.077 39.3584 7.965C39.671 7.853 40.028 7.797 40.4294 7.797C40.896 7.797 41.3137 7.87167 41.6824 8.021C42.0557 8.16567 42.3777 8.36633 42.6484 8.623L42.3684 9.078ZM46.472 15.112C45.912 15.112 45.4803 14.9557 45.177 14.643C44.8783 14.3303 44.729 13.88 44.729 13.292V8.952H43.875C43.8003 8.952 43.7373 8.931 43.686 8.889C43.6347 8.84233 43.609 8.77233 43.609 8.679V8.182L44.771 8.035L45.058 5.844C45.072 5.774 45.1023 5.718 45.149 5.676C45.2003 5.62933 45.2657 5.606 45.345 5.606H45.975V8.049H48.026V8.952H45.975V13.208C45.975 13.5067 46.0473 13.7283 46.192 13.873C46.3367 14.0177 46.5233 14.09 46.752 14.09C46.8827 14.09 46.9947 14.0737 47.088 14.041C47.186 14.0037 47.27 13.964 47.34 13.922C47.41 13.88 47.4683 13.8427 47.515 13.81C47.5663 13.7727 47.6107 13.754 47.648 13.754C47.7133 13.754 47.7717 13.7937 47.823 13.873L48.187 14.468C47.9723 14.6687 47.7133 14.8273 47.41 14.944C47.1067 15.056 46.794 15.112 46.472 15.112Z" fill="#B53F00"/>
</svg>
