<svg width="61" height="20" viewBox="0 0 61 20" fill="none" xmlns="http://www.w3.org/2000/svg">
<rect width="61" height="20" rx="5" fill="#FA983C"/>
<path d="M16.6873 4.969V15H15.4973V7.629C15.4973 7.531 15.4997 7.426 15.5043 7.314C15.5137 7.202 15.523 7.08767 15.5323 6.971L12.0883 13.243C11.981 13.453 11.8177 13.558 11.5983 13.558H11.4023C11.183 13.558 11.0197 13.453 10.9123 13.243L7.39834 6.943C7.42634 7.19033 7.44034 7.419 7.44034 7.629V15H6.25034V4.969H7.25134C7.37268 4.969 7.46601 4.98067 7.53134 5.004C7.59668 5.02733 7.65968 5.09267 7.72034 5.2L11.1853 11.374C11.2413 11.486 11.295 11.6027 11.3463 11.724C11.4023 11.8453 11.4537 11.969 11.5003 12.095C11.547 11.969 11.596 11.8453 11.6473 11.724C11.6987 11.598 11.7547 11.479 11.8153 11.367L15.2173 5.2C15.2733 5.09267 15.334 5.02733 15.3993 5.004C15.4693 4.98067 15.565 4.969 15.6863 4.969H16.6873ZM23.4855 10.681C23.4855 10.3917 23.4435 10.128 23.3595 9.89C23.2802 9.64733 23.1612 9.43967 23.0025 9.267C22.8485 9.08967 22.6595 8.95433 22.4355 8.861C22.2115 8.763 21.9572 8.714 21.6725 8.714C21.0752 8.714 20.6015 8.889 20.2515 9.239C19.9062 9.58433 19.6915 10.065 19.6075 10.681H23.4855ZM24.4935 14.006C24.3395 14.1927 24.1552 14.356 23.9405 14.496C23.7259 14.6313 23.4949 14.7433 23.2475 14.832C23.0049 14.9207 22.7529 14.986 22.4915 15.028C22.2302 15.0747 21.9712 15.098 21.7145 15.098C21.2245 15.098 20.7719 15.0163 20.3565 14.853C19.9459 14.685 19.5889 14.4423 19.2855 14.125C18.9869 13.803 18.7535 13.4063 18.5855 12.935C18.4175 12.4637 18.3335 11.9223 18.3335 11.311C18.3335 10.8163 18.4082 10.3543 18.5575 9.925C18.7115 9.49567 18.9309 9.12467 19.2155 8.812C19.5002 8.49467 19.8479 8.24733 20.2585 8.07C20.6692 7.888 21.1312 7.797 21.6445 7.797C22.0692 7.797 22.4612 7.86933 22.8205 8.014C23.1845 8.154 23.4972 8.35933 23.7585 8.63C24.0245 8.896 24.2322 9.22733 24.3815 9.624C24.5309 10.016 24.6055 10.464 24.6055 10.968C24.6055 11.164 24.5845 11.2947 24.5425 11.36C24.5005 11.4253 24.4212 11.458 24.3045 11.458H19.5655C19.5795 11.906 19.6402 12.2957 19.7475 12.627C19.8595 12.9583 20.0135 13.236 20.2095 13.46C20.4055 13.6793 20.6389 13.845 20.9095 13.957C21.1802 14.0643 21.4835 14.118 21.8195 14.118C22.1322 14.118 22.4005 14.083 22.6245 14.013C22.8532 13.9383 23.0492 13.859 23.2125 13.775C23.3759 13.691 23.5112 13.614 23.6185 13.544C23.7305 13.4693 23.8262 13.432 23.9055 13.432C24.0082 13.432 24.0875 13.4717 24.1435 13.551L24.4935 14.006ZM30.756 9.596C30.5227 9.28333 30.2707 9.06633 30 8.945C29.7294 8.819 29.426 8.756 29.09 8.756C28.432 8.756 27.9257 8.99167 27.571 9.463C27.2164 9.93433 27.039 10.6063 27.039 11.479C27.039 11.941 27.0787 12.3377 27.158 12.669C27.2374 12.9957 27.354 13.2663 27.508 13.481C27.662 13.691 27.851 13.845 28.075 13.943C28.299 14.041 28.5534 14.09 28.838 14.09C29.2487 14.09 29.6057 13.9967 29.909 13.81C30.217 13.6233 30.4994 13.3597 30.756 13.019V9.596ZM32.002 4.689V15H31.26C31.0827 15 30.9707 14.9137 30.924 14.741L30.812 13.88C30.5087 14.244 30.1634 14.538 29.776 14.762C29.3887 14.986 28.9407 15.098 28.432 15.098C28.026 15.098 27.6574 15.021 27.326 14.867C26.9947 14.7083 26.7124 14.4773 26.479 14.174C26.2457 13.8707 26.066 13.4927 25.94 13.04C25.814 12.5873 25.751 12.067 25.751 11.479C25.751 10.9563 25.821 10.471 25.961 10.023C26.101 9.57033 26.3017 9.17833 26.563 8.847C26.8244 8.51567 27.144 8.25667 27.522 8.07C27.9047 7.87867 28.334 7.783 28.81 7.783C29.244 7.783 29.615 7.85767 29.923 8.007C30.2357 8.15167 30.5134 8.35467 30.756 8.616V4.689H32.002ZM35.286 7.909V15H34.04V7.909H35.286ZM35.552 5.683C35.552 5.80433 35.5264 5.91867 35.475 6.026C35.4284 6.12867 35.363 6.222 35.279 6.306C35.1997 6.38533 35.104 6.44833 34.992 6.495C34.8847 6.54167 34.7704 6.565 34.649 6.565C34.5277 6.565 34.4134 6.54167 34.306 6.495C34.2034 6.44833 34.1124 6.38533 34.033 6.306C33.9537 6.222 33.8907 6.12867 33.844 6.026C33.7974 5.91867 33.774 5.80433 33.774 5.683C33.774 5.56167 33.7974 5.44733 33.844 5.34C33.8907 5.228 33.9537 5.13233 34.033 5.053C34.1124 4.969 34.2034 4.90367 34.306 4.857C34.4134 4.81033 34.5277 4.787 34.649 4.787C34.7704 4.787 34.8847 4.81033 34.992 4.857C35.104 4.90367 35.1997 4.969 35.279 5.053C35.363 5.13233 35.4284 5.228 35.475 5.34C35.5264 5.44733 35.552 5.56167 35.552 5.683ZM43.1643 7.909V15H42.4223C42.245 15 42.133 14.9137 42.0863 14.741L41.9883 13.978C41.6803 14.3187 41.335 14.594 40.9523 14.804C40.5696 15.0093 40.131 15.112 39.6363 15.112C39.249 15.112 38.906 15.049 38.6073 14.923C38.3133 14.7923 38.066 14.6103 37.8653 14.377C37.6646 14.1437 37.513 13.8613 37.4103 13.53C37.3123 13.1987 37.2633 12.8323 37.2633 12.431V7.909H38.5093V12.431C38.5093 12.9677 38.6306 13.383 38.8733 13.677C39.1206 13.971 39.4963 14.118 40.0003 14.118C40.369 14.118 40.712 14.0317 41.0293 13.859C41.3513 13.6817 41.6476 13.439 41.9183 13.131V7.909H43.1643ZM45.1399 15V7.909H45.8889C46.0663 7.909 46.1759 7.99533 46.2179 8.168L46.3089 8.896C46.5703 8.574 46.8643 8.31033 47.1909 8.105C47.5176 7.89967 47.8956 7.797 48.3249 7.797C48.8009 7.797 49.1859 7.93 49.4799 8.196C49.7786 8.462 49.9933 8.82133 50.1239 9.274C50.2266 9.01733 50.3573 8.79567 50.5159 8.609C50.6793 8.42233 50.8613 8.26833 51.0619 8.147C51.2626 8.02567 51.4749 7.937 51.6989 7.881C51.9276 7.825 52.1586 7.797 52.3919 7.797C52.7653 7.797 53.0966 7.85767 53.3859 7.979C53.6799 8.09567 53.9273 8.26833 54.1279 8.497C54.3333 8.72567 54.4896 9.008 54.5969 9.344C54.7043 9.67533 54.7579 10.0557 54.7579 10.485V15H53.5049V10.485C53.5049 9.92967 53.3836 9.50967 53.1409 9.225C52.8983 8.93567 52.5483 8.791 52.0909 8.791C51.8856 8.791 51.6896 8.82833 51.5029 8.903C51.3209 8.973 51.1599 9.078 51.0199 9.218C50.8799 9.358 50.7679 9.53533 50.6839 9.75C50.6046 9.96 50.5649 10.205 50.5649 10.485V15H49.3119V10.485C49.3119 9.91567 49.1976 9.491 48.9689 9.211C48.7403 8.931 48.4066 8.791 47.9679 8.791C47.6599 8.791 47.3753 8.875 47.1139 9.043C46.8526 9.20633 46.6123 9.43033 46.3929 9.715V15H45.1399Z" fill="#B53F00"/>
</svg>
