<svg width="36" height="20" viewBox="0 0 36 20" fill="none" xmlns="http://www.w3.org/2000/svg">
<path d="M0 5C0 2.23858 2.23858 0 5 0H31C33.7614 0 36 2.23858 36 5V15C36 17.7614 33.7614 20 31 20H5C2.23858 20 0 17.7614 0 15V5Z" fill="#79B2FC"/>
<path d="M12.6656 6.11H9.41756V15H8.06656V6.11H4.81156V4.969H12.6656V6.11ZM16.1034 11.808C15.5294 11.8267 15.0394 11.8733 14.6334 11.948C14.2321 12.018 13.9031 12.1113 13.6464 12.228C13.3944 12.3447 13.2101 12.4823 13.0934 12.641C12.9814 12.7997 12.9254 12.977 12.9254 13.173C12.9254 13.3597 12.9558 13.5207 13.0164 13.656C13.0771 13.7913 13.1588 13.9033 13.2614 13.992C13.3688 14.076 13.4924 14.139 13.6324 14.181C13.7771 14.2183 13.9311 14.237 14.0944 14.237C14.3138 14.237 14.5144 14.216 14.6964 14.174C14.8784 14.1273 15.0488 14.062 15.2074 13.978C15.3708 13.894 15.5248 13.7937 15.6694 13.677C15.8188 13.5603 15.9634 13.4273 16.1034 13.278V11.808ZM12.0784 8.91C12.4704 8.532 12.8928 8.24967 13.3454 8.063C13.7981 7.87633 14.2998 7.783 14.8504 7.783C15.2471 7.783 15.5994 7.84833 15.9074 7.979C16.2154 8.10967 16.4744 8.29167 16.6844 8.525C16.8944 8.75833 17.0531 9.04067 17.1604 9.372C17.2678 9.70333 17.3214 10.0673 17.3214 10.464V15H16.7684C16.6471 15 16.5538 14.9813 16.4884 14.944C16.4231 14.902 16.3718 14.8227 16.3344 14.706L16.1944 14.034C16.0078 14.2067 15.8258 14.3607 15.6484 14.496C15.4711 14.6267 15.2844 14.7387 15.0884 14.832C14.8924 14.9207 14.6824 14.9883 14.4584 15.035C14.2391 15.0863 13.9941 15.112 13.7234 15.112C13.4481 15.112 13.1891 15.0747 12.9464 15C12.7038 14.9207 12.4914 14.804 12.3094 14.65C12.1321 14.496 11.9898 14.3023 11.8824 14.069C11.7798 13.831 11.7284 13.551 11.7284 13.229C11.7284 12.949 11.8054 12.6807 11.9594 12.424C12.1134 12.1627 12.3631 11.9317 12.7084 11.731C13.0538 11.5303 13.5041 11.367 14.0594 11.241C14.6148 11.1103 15.2961 11.0357 16.1034 11.017V10.464C16.1034 9.91333 15.9844 9.498 15.7464 9.218C15.5084 8.93333 15.1608 8.791 14.7034 8.791C14.3954 8.791 14.1364 8.83067 13.9264 8.91C13.7211 8.98467 13.5414 9.071 13.3874 9.169C13.2381 9.26233 13.1074 9.34867 12.9954 9.428C12.8881 9.50267 12.7808 9.54 12.6734 9.54C12.5894 9.54 12.5171 9.519 12.4564 9.477C12.3958 9.43033 12.3444 9.37433 12.3024 9.309L12.0784 8.91ZM23.3494 9.078C23.2934 9.18067 23.2071 9.232 23.0904 9.232C23.0204 9.232 22.9411 9.20633 22.8524 9.155C22.7638 9.10367 22.6541 9.04767 22.5234 8.987C22.3974 8.92167 22.2458 8.86333 22.0684 8.812C21.8911 8.756 21.6811 8.728 21.4384 8.728C21.2284 8.728 21.0394 8.756 20.8714 8.812C20.7034 8.86333 20.5588 8.93567 20.4374 9.029C20.3208 9.12233 20.2298 9.232 20.1644 9.358C20.1038 9.47933 20.0734 9.61233 20.0734 9.757C20.0734 9.939 20.1248 10.0907 20.2274 10.212C20.3348 10.3333 20.4748 10.4383 20.6474 10.527C20.8201 10.6157 21.0161 10.695 21.2354 10.765C21.4548 10.8303 21.6788 10.9027 21.9074 10.982C22.1408 11.0567 22.3671 11.1407 22.5864 11.234C22.8058 11.3273 23.0018 11.444 23.1744 11.584C23.3471 11.724 23.4848 11.8967 23.5874 12.102C23.6948 12.3027 23.7484 12.5453 23.7484 12.83C23.7484 13.1567 23.6901 13.46 23.5734 13.74C23.4568 14.0153 23.2841 14.2557 23.0554 14.461C22.8268 14.6617 22.5468 14.8203 22.2154 14.937C21.8841 15.0537 21.5014 15.112 21.0674 15.112C20.5728 15.112 20.1248 15.0327 19.7234 14.874C19.3221 14.7107 18.9814 14.503 18.7014 14.251L18.9954 13.775C19.0328 13.7143 19.0771 13.6677 19.1284 13.635C19.1798 13.6023 19.2451 13.586 19.3244 13.586C19.4084 13.586 19.4971 13.6187 19.5904 13.684C19.6838 13.7493 19.7958 13.8217 19.9264 13.901C20.0618 13.9803 20.2251 14.0527 20.4164 14.118C20.6078 14.1833 20.8458 14.216 21.1304 14.216C21.3731 14.216 21.5854 14.1857 21.7674 14.125C21.9494 14.0597 22.1011 13.9733 22.2224 13.866C22.3438 13.7587 22.4324 13.635 22.4884 13.495C22.5491 13.355 22.5794 13.2057 22.5794 13.047C22.5794 12.851 22.5258 12.69 22.4184 12.564C22.3158 12.4333 22.1781 12.3237 22.0054 12.235C21.8328 12.1417 21.6344 12.0623 21.4104 11.997C21.1911 11.927 20.9648 11.8547 20.7314 11.78C20.5028 11.7053 20.2764 11.6213 20.0524 11.528C19.8331 11.43 19.6371 11.3087 19.4644 11.164C19.2918 11.0193 19.1518 10.842 19.0444 10.632C18.9418 10.4173 18.8904 10.1583 18.8904 9.855C18.8904 9.58433 18.9464 9.32533 19.0584 9.078C19.1704 8.826 19.3338 8.60667 19.5484 8.42C19.7631 8.22867 20.0268 8.077 20.3394 7.965C20.6521 7.853 21.0091 7.797 21.4104 7.797C21.8771 7.797 22.2948 7.87167 22.6634 8.021C23.0368 8.16567 23.3588 8.36633 23.6294 8.623L23.3494 9.078ZM26.5291 4.689V10.758H26.8511C26.9444 10.758 27.0214 10.7463 27.0821 10.723C27.1474 10.695 27.2151 10.6413 27.2851 10.562L29.5251 8.161C29.5904 8.08167 29.6581 8.021 29.7281 7.979C29.8027 7.93233 29.9007 7.909 30.0221 7.909H31.1491L28.5381 10.688C28.4121 10.8467 28.2767 10.9703 28.1321 11.059C28.2161 11.115 28.2907 11.1803 28.3561 11.255C28.4261 11.325 28.4914 11.4067 28.5521 11.5L31.3241 15H30.2111C30.1037 15 30.0104 14.9837 29.9311 14.951C29.8564 14.9137 29.7911 14.8483 29.7351 14.755L27.4041 11.85C27.3341 11.752 27.2641 11.689 27.1941 11.661C27.1287 11.6283 27.0261 11.612 26.8861 11.612H26.5291V15H25.2761V4.689H26.5291Z" fill="#0B69E3"/>
</svg>
